<svg width="502" height="503" viewBox="0 0 502 503" fill="none" xmlns="http://www.w3.org/2000/svg">
<path d="M137 168.5H99L79 155.5" stroke="#0060E1" stroke-width="2.5"/>
<path d="M364 333.5H402L422 346.5" stroke="#0060E1" stroke-width="2.5"/>
<path d="M168.5 365V403L155.5 423" stroke="#0060E1" stroke-width="2.5"/>
<path d="M333.5 137V99L346.5 79" stroke="#0060E1" stroke-width="2.5"/>
<path d="M168.5 365V403L155.5 423" stroke="#0060E1" stroke-width="2.5"/>
<path d="M333.5 137V99L346.5 79" stroke="#0060E1" stroke-width="2.5"/>
<path d="M137 189H101.5L83 201.5H62.5" stroke="#0060E1" stroke-width="2.5"/>
<path d="M365 313H400.5L419 300.5H439.5" stroke="#0060E1" stroke-width="2.5"/>
<path d="M189 366V401.5L201.5 420V440.5" stroke="#0060E1" stroke-width="2.5"/>
<path d="M313 137V101.5L300.5 83V62.5" stroke="#0060E1" stroke-width="2.5"/>
<path d="M189 366V401.5L201.5 420V440.5" stroke="#0060E1" stroke-width="2.5"/>
<path d="M313 137V101.5L300.5 83V62.5" stroke="#0060E1" stroke-width="2.5"/>
<path d="M137 209.5H103L82.5 220.5H36.5" stroke="#0060E1" stroke-width="2.5"/>
<path d="M365 292.5H399L419.5 281.5H465.5" stroke="#0060E1" stroke-width="2.5"/>
<path d="M209.5 366V400L220.5 420.5V466.5" stroke="#0060E1" stroke-width="2.5"/>
<path d="M292.5 137V103L281.5 82.5V36.5" stroke="#0060E1" stroke-width="2.5"/>
<path d="M209.5 366V400L220.5 420.5V466.5" stroke="#0060E1" stroke-width="2.5"/>
<path d="M292.5 137V103L281.5 82.5V36.5" stroke="#0060E1" stroke-width="2.5"/>
<path d="M137 229H115.5" stroke="#0060E1" stroke-width="2.5"/>
<path d="M365 273H386.5" stroke="#0060E1" stroke-width="2.5"/>
<path d="M229 366V387.5" stroke="#0060E1" stroke-width="2.5"/>
<path d="M273 137V115.5" stroke="#0060E1" stroke-width="2.5"/>
<path d="M229 366V387.5" stroke="#0060E1" stroke-width="2.5"/>
<path d="M273 137V115.5" stroke="#0060E1" stroke-width="2.5"/>
<path d="M137 249H90.5" stroke="#0060E1" stroke-width="2.5"/>
<path d="M365 253H411.5" stroke="#0060E1" stroke-width="2.5"/>
<path d="M249 366V412.5" stroke="#0060E1" stroke-width="2.5"/>
<path d="M253 137V90.5" stroke="#0060E1" stroke-width="2.5"/>
<path d="M249 366V412.5" stroke="#0060E1" stroke-width="2.5"/>
<path d="M253 137V90.5" stroke="#0060E1" stroke-width="2.5"/>
<path d="M137 269H96L72 285.5H23" stroke="#0060E1" stroke-width="2.5"/>
<path d="M365 233H406L430 216.5H479" stroke="#0060E1" stroke-width="2.5"/>
<path d="M269 366V407L285.5 431V480" stroke="#0060E1" stroke-width="2.5"/>
<path d="M233 137V96L216.5 72V23" stroke="#0060E1" stroke-width="2.5"/>
<path d="M269 366V407L285.5 431V480" stroke="#0060E1" stroke-width="2.5"/>
<path d="M233 137V96L216.5 72V23" stroke="#0060E1" stroke-width="2.5"/>
<path d="M137 289H111" stroke="#0060E1" stroke-width="2.5"/>
<path d="M365 213H391" stroke="#0060E1" stroke-width="2.5"/>
<path d="M289 366V392" stroke="#0060E1" stroke-width="2.5"/>
<path d="M213 137V111" stroke="#0060E1" stroke-width="2.5"/>
<path d="M289 366V392" stroke="#0060E1" stroke-width="2.5"/>
<path d="M213 137V111" stroke="#0060E1" stroke-width="2.5"/>
<path d="M137 309H62" stroke="#0060E1" stroke-width="2.5"/>
<path d="M365 193H440" stroke="#0060E1" stroke-width="2.5"/>
<path d="M309 366V441" stroke="#0060E1" stroke-width="2.5"/>
<path d="M193 137V62" stroke="#0060E1" stroke-width="2.5"/>
<path d="M309 366V441" stroke="#0060E1" stroke-width="2.5"/>
<path d="M193 137V62" stroke="#0060E1" stroke-width="2.5"/>
<path d="M137 329H110L91 341.5" stroke="#0060E1" stroke-width="2.5"/>
<path d="M364 173H391L410 160.5" stroke="#0060E1" stroke-width="2.5"/>
<path d="M329 364V391L341.5 410" stroke="#0060E1" stroke-width="2.5"/>
<path d="M173 137V110L160.5 91" stroke="#0060E1" stroke-width="2.5"/>
<path d="M329 364V391L341.5 410" stroke="#0060E1" stroke-width="2.5"/>
<path d="M173 137V110L160.5 91" stroke="#0060E1" stroke-width="2.5"/>
<path d="M164.213 362.375C163.734 361.482 164 338 164 338L168.5 340.5H173.787C173.787 340.5 174.266 361.482 173.787 362.375C173.309 363.268 171.282 365.5 169 365.5C166.718 365.5 164.692 363.268 164.213 362.375Z" stroke="#0060E1"/>
<path d="M164.213 362.375C163.734 361.482 164 338 164 338L168.5 340.5H173.787C173.787 340.5 174.266 361.482 173.787 362.375C173.309 363.268 171.282 365.5 169 365.5C166.718 365.5 164.692 363.268 164.213 362.375Z" stroke="#0060E1"/>
<path d="M168.286 140.125C167.808 141.018 168 163 168 163L172.574 162H177.861C177.861 162 178.34 141.018 177.861 140.125C177.382 139.232 175.356 137 173.074 137C170.792 137 168.765 139.232 168.286 140.125Z" stroke="#0060E1"/>
<path d="M188.325 140.125C187.846 141.018 188 162 188 162H192.612H197.899C197.899 162 198.378 141.018 197.899 140.125C197.42 139.232 195.394 137 193.112 137C190.83 137 188.803 139.232 188.325 140.125Z" stroke="#0060E1"/>
<path d="M208.348 140.125C207.869 141.018 208.024 162 208.024 162H212.635H217.923C217.923 162 218.401 141.018 217.923 140.125C217.444 139.232 215.417 137 213.135 137C210.853 137 208.827 139.232 208.348 140.125Z" stroke="#0060E1"/>
<path d="M228.372 140.125C227.893 141.018 228.047 162 228.047 162H232.659H237.946C237.946 162 238.425 141.018 237.946 140.125C237.468 139.232 235.441 137 233.159 137C230.877 137 228.851 139.232 228.372 140.125Z" stroke="#0060E1"/>
<path d="M248.396 140.125C247.917 141.018 248.071 162 248.071 162H252.683H257.97C257.97 162 258.449 141.018 257.97 140.125C257.491 139.232 255.465 137 253.183 137C250.901 137 248.874 139.232 248.396 140.125Z" stroke="#0060E1"/>
<path d="M268.419 140.125C267.941 141.018 268.095 162 268.095 162H272.706H277.994C277.994 162 278.472 141.018 277.994 140.125C277.515 139.232 275.489 137 273.206 137C270.924 137 268.898 139.232 268.419 140.125Z" stroke="#0060E1"/>
<path d="M288.443 140.125C287.964 141.018 288.118 162 288.118 162H292.73H298.017C298.017 162 298.496 141.018 298.017 140.125C297.539 139.232 295.512 137 293.23 137C290.948 137 288.922 139.232 288.443 140.125Z" stroke="#0060E1"/>
<path d="M308.467 140.125C307.988 141.018 308.142 162 308.142 162H312.754H318.041C318.041 162 318.52 141.018 318.041 140.125C317.562 139.232 315.536 137 313.254 137C310.972 137 308.945 139.232 308.467 140.125Z" stroke="#0060E1"/>
<path d="M139.568 333.716C140.445 334.191 162 333.716 162 333.716V329V324.211C162 324.211 140.445 323.736 139.568 324.211C138.692 324.686 136.5 326.698 136.5 328.963C136.5 331.229 138.692 333.24 139.568 333.716Z" stroke="#0060E1"/>
<path d="M140.068 313.716C140.945 314.191 162.5 313.716 162.5 313.716V309V304.211C162.5 304.211 140.945 303.736 140.068 304.211C139.192 304.686 137 306.698 137 308.963C137 311.229 139.192 313.24 140.068 313.716Z" stroke="#0060E1"/>
<path d="M140.068 293.716C140.945 294.191 162.5 293.716 162.5 293.716V289V284.211C162.5 284.211 140.945 283.736 140.068 284.211C139.192 284.686 137 286.698 137 288.963C137 291.229 139.192 293.24 140.068 293.716Z" stroke="#0060E1"/>
<path d="M140.068 273.716C140.945 274.191 162.5 273.716 162.5 273.716V269V264.211C162.5 264.211 140.945 263.736 140.068 264.211C139.192 264.686 137 266.698 137 268.963C137 271.229 139.192 273.24 140.068 273.716Z" stroke="#0060E1"/>
<path d="M140.068 253.716C140.945 254.191 162.5 253.716 162.5 253.716V249V244.211C162.5 244.211 140.945 243.736 140.068 244.211C139.192 244.686 137 246.698 137 248.963C137 251.229 139.192 253.24 140.068 253.716Z" stroke="#0060E1"/>
<path d="M140.068 233.716C140.945 234.191 162.5 233.716 162.5 233.716V229V224.211C162.5 224.211 140.945 223.736 140.068 224.211C139.192 224.686 137 226.698 137 228.963C137 231.229 139.192 233.24 140.068 233.716Z" stroke="#0060E1"/>
<path d="M140.068 213.716C140.945 214.191 162.5 213.716 162.5 213.716V209V204.211C162.5 204.211 140.945 203.736 140.068 204.211C139.192 204.686 137 206.698 137 208.963C137 211.229 139.192 213.24 140.068 213.716Z" stroke="#0060E1"/>
<path d="M140.068 193.716C140.945 194.191 162.5 193.716 162.5 193.716V189V184.211C162.5 184.211 140.945 183.736 140.068 184.211C139.192 184.686 137 186.698 137 188.963C137 191.229 139.192 193.24 140.068 193.716Z" stroke="#0060E1"/>
<path d="M334 361.375C334.479 360.482 334 339.5 334 339.5H329.5H324.213C324.213 339.5 323.734 360.482 324.213 361.375C324.691 362.268 326.718 364.5 329 364.5C331.282 364.5 333.521 362.268 334 361.375Z" stroke="#0060E1"/>
<path d="M334 361.375C334.479 360.482 334 339.5 334 339.5H329.5H324.213C324.213 339.5 323.734 360.482 324.213 361.375C324.691 362.268 326.718 364.5 329 364.5C331.282 364.5 333.521 362.268 334 361.375Z" stroke="#0060E1"/>
<path d="M361.375 168.213C360.482 167.734 339.5 168 339.5 168V172.713V178C339.5 178 360.482 178.479 361.375 178C362.268 177.521 364.5 175.495 364.5 173.213C364.5 170.931 362.268 168.691 361.375 168.213Z" stroke="#0060E1"/>
<path d="M361.875 188.286C360.982 187.808 340 188.074 340 188.074V192.786V198.074C340 198.074 360.982 198.552 361.875 198.074C362.768 197.595 365 195.569 365 193.286C365 191.004 362.768 188.765 361.875 188.286Z" stroke="#0060E1"/>
<path d="M361.875 208.286C360.982 207.808 340 208.074 340 208.074V212.786V218.074C340 218.074 360.982 218.552 361.875 218.074C362.768 217.595 365 215.569 365 213.286C365 211.004 362.768 208.765 361.875 208.286Z" stroke="#0060E1"/>
<path d="M361.875 228.286C360.982 227.808 340 228.074 340 228.074V232.786V238.074C340 238.074 360.982 238.552 361.875 238.074C362.768 237.595 365 235.569 365 233.286C365 231.004 362.768 228.765 361.875 228.286Z" stroke="#0060E1"/>
<path d="M361.875 248.286C360.982 247.808 340 248.074 340 248.074V252.786V258.074C340 258.074 360.982 258.552 361.875 258.074C362.768 257.595 365 255.569 365 253.286C365 251.004 362.768 248.765 361.875 248.286Z" stroke="#0060E1"/>
<path d="M361.875 268.286C360.982 267.808 340 268.074 340 268.074V272.786V278.074C340 278.074 360.982 278.552 361.875 278.074C362.768 277.595 365 275.569 365 273.286C365 271.004 362.768 268.765 361.875 268.286Z" stroke="#0060E1"/>
<path d="M361.875 288.286C360.982 287.808 340 288.074 340 288.074V292.786V298.074C340 298.074 360.982 298.552 361.875 298.074C362.768 297.595 365 295.569 365 293.286C365 291.004 362.768 288.765 361.875 288.286Z" stroke="#0060E1"/>
<path d="M361.875 308.286C360.982 307.808 340 308.074 340 308.074V312.786V318.074C340 318.074 360.982 318.552 361.875 318.074C362.768 317.595 365 315.569 365 313.286C365 311.004 362.768 308.765 361.875 308.286Z" stroke="#0060E1"/>
<path d="M140.125 163.286C141.018 162.808 165.5 163 165.5 163L162.5 168L162 173.074C162 173.074 141.018 173.552 140.125 173.074C139.232 172.595 137 170.568 137 168.286C137 166.004 139.232 163.765 140.125 163.286Z" stroke="#0060E1"/>
<path d="M361.375 338C360.482 338.479 338 338 338 338L339.5 333.5V328.213C339.5 328.213 360.482 327.734 361.375 328.213C362.268 328.691 364.5 330.718 364.5 333C364.5 335.282 362.268 337.521 361.375 338Z" stroke="#0060E1"/>
<path d="M338 140.125C338.479 141.018 338 164.5 338 164.5L333.5 162H328.213C328.213 162 327.734 141.018 328.213 140.125C328.691 139.232 330.718 137 333 137C335.282 137 337.521 139.232 338 140.125Z" stroke="#0060E1"/>
<path d="M184.213 362.75C183.734 361.821 184.213 340 184.213 340H193.787C193.787 340 194.266 361.821 193.787 362.75C193.309 363.679 191.282 366 189 366C186.718 366 184.691 363.679 184.213 362.75Z" stroke="#0060E1"/>
<path d="M184.213 362.75C183.734 361.821 184.213 340 184.213 340H193.787C193.787 340 194.266 361.821 193.787 362.75C193.309 363.679 191.282 366 189 366C186.718 366 184.691 363.679 184.213 362.75Z" stroke="#0060E1"/>
<path d="M204.213 362.75C203.734 361.821 204.213 340 204.213 340H213.787C213.787 340 214.266 361.821 213.787 362.75C213.309 363.679 211.282 366 209 366C206.718 366 204.691 363.679 204.213 362.75Z" stroke="#0060E1"/>
<path d="M204.213 362.75C203.734 361.821 204.213 340 204.213 340H213.787C213.787 340 214.266 361.821 213.787 362.75C213.309 363.679 211.282 366 209 366C206.718 366 204.691 363.679 204.213 362.75Z" stroke="#0060E1"/>
<path d="M224.213 362.75C223.734 361.821 224.213 340 224.213 340H233.787C233.787 340 234.266 361.821 233.787 362.75C233.309 363.679 231.282 366 229 366C226.718 366 224.691 363.679 224.213 362.75Z" stroke="#0060E1"/>
<path d="M224.213 362.75C223.734 361.821 224.213 340 224.213 340H233.787C233.787 340 234.266 361.821 233.787 362.75C233.309 363.679 231.282 366 229 366C226.718 366 224.691 363.679 224.213 362.75Z" stroke="#0060E1"/>
<path d="M244.213 362.75C243.734 361.821 244.213 340 244.213 340H253.787C253.787 340 254.266 361.821 253.787 362.75C253.309 363.679 251.282 366 249 366C246.718 366 244.691 363.679 244.213 362.75Z" stroke="#0060E1"/>
<path d="M244.213 362.75C243.734 361.821 244.213 340 244.213 340H253.787C253.787 340 254.266 361.821 253.787 362.75C253.309 363.679 251.282 366 249 366C246.718 366 244.691 363.679 244.213 362.75Z" stroke="#0060E1"/>
<path d="M264.213 362.75C263.734 361.821 264.213 340 264.213 340H273.787C273.787 340 274.266 361.821 273.787 362.75C273.309 363.679 271.282 366 269 366C266.718 366 264.691 363.679 264.213 362.75Z" stroke="#0060E1"/>
<path d="M264.213 362.75C263.734 361.821 264.213 340 264.213 340H273.787C273.787 340 274.266 361.821 273.787 362.75C273.309 363.679 271.282 366 269 366C266.718 366 264.691 363.679 264.213 362.75Z" stroke="#0060E1"/>
<path d="M284.213 362.75C283.734 361.821 284.213 340 284.213 340H293.787C293.787 340 294.266 361.821 293.787 362.75C293.309 363.679 291.282 366 289 366C286.718 366 284.691 363.679 284.213 362.75Z" stroke="#0060E1"/>
<path d="M284.213 362.75C283.734 361.821 284.213 340 284.213 340H293.787C293.787 340 294.266 361.821 293.787 362.75C293.309 363.679 291.282 366 289 366C286.718 366 284.691 363.679 284.213 362.75Z" stroke="#0060E1"/>
<path d="M304.213 362.75C303.734 361.821 304.213 340 304.213 340H313.787C313.787 340 314.266 361.821 313.787 362.75C313.309 363.679 311.282 366 309 366C306.718 366 304.691 363.679 304.213 362.75Z" stroke="#0060E1"/>
<path d="M304.213 362.75C303.734 361.821 304.213 340 304.213 340H313.787C313.787 340 314.266 361.821 313.787 362.75C313.309 363.679 311.282 366 309 366C306.718 366 304.691 363.679 304.213 362.75Z" stroke="#0060E1"/>
<rect x="162" y="162" width="178" height="178" rx="9" stroke="#0060E1" stroke-width="2"/>
<circle cx="12" cy="286" r="12" fill="#0060E1"/>
<circle cx="490" cy="216" r="12" transform="rotate(-180 490 216)" fill="#0060E1"/>
<circle cx="286" cy="491" r="12" transform="rotate(-90 286 491)" fill="#0060E1"/>
<circle cx="216" cy="12" r="11.5" transform="rotate(90 216 12)" fill="#D9D9D9" stroke="black"/>
<circle cx="216" cy="12" r="12" transform="rotate(90 216 12)" fill="#0060E1"/>
<circle cx="75" cy="249" r="16" fill="#0060E1"/>
<circle cx="427" cy="253" r="16" transform="rotate(-180 427 253)" fill="#0060E1"/>
<circle cx="249" cy="428" r="16" transform="rotate(-90 249 428)" fill="#0060E1"/>
<circle cx="253" cy="75" r="15.5" transform="rotate(90 253 75)" fill="#D9D9D9" stroke="black"/>
<circle cx="253" cy="75" r="16" transform="rotate(90 253 75)" fill="#0060E1"/>
<circle cx="54" cy="309" r="8.5" fill="#D9D9D9" stroke="black"/>
<circle cx="448" cy="193" r="9" transform="rotate(-180 448 193)" fill="#0060E1"/>
<circle cx="309" cy="449" r="8.5" transform="rotate(-90 309 449)" fill="#D9D9D9" stroke="black"/>
<circle cx="193" cy="54" r="8.5" transform="rotate(90 193 54)" fill="#D9D9D9" stroke="black"/>
<circle cx="309" cy="449" r="8.5" transform="rotate(-90 309 449)" fill="#D9D9D9" stroke="black"/>
<circle cx="193" cy="54" r="8.5" transform="rotate(90 193 54)" fill="#D9D9D9" stroke="black"/>
<circle cx="54" cy="309" r="9" fill="#0060E1"/>
<circle cx="309" cy="449" r="9" transform="rotate(-90 309 449)" fill="#0060E1"/>
<circle cx="193" cy="54" r="8.5" transform="rotate(90 193 54)" fill="#D9D9D9" stroke="black"/>
<circle cx="193" cy="54" r="9" transform="rotate(90 193 54)" fill="#0060E1"/>
<circle cx="103" cy="289" r="9" fill="#0060E1"/>
<circle cx="399" cy="213" r="9" transform="rotate(-180 399 213)" fill="#0060E1"/>
<circle cx="289" cy="400" r="9" transform="rotate(-90 289 400)" fill="#0060E1"/>
<circle cx="213" cy="103" r="8.5" transform="rotate(90 213 103)" fill="#D9D9D9" stroke="black"/>
<circle cx="213" cy="103" r="9" transform="rotate(90 213 103)" fill="#0060E1"/>
<circle cx="70.5" cy="153.5" r="9" stroke="#0060E1"/>
<circle cx="430.5" cy="348.5" r="9" transform="rotate(-180 430.5 348.5)" stroke="#0060E1"/>
<circle cx="153.5" cy="431.5" r="9" transform="rotate(-90 153.5 431.5)" stroke="#0060E1"/>
<circle cx="348.5" cy="70.5" r="9" transform="rotate(90 348.5 70.5)" stroke="#0060E1"/>
<path d="M105.5 219.5C111.046 219.5 115.5 223.776 115.5 229C115.5 234.224 111.046 238.5 105.5 238.5C99.9539 238.5 95.5 234.224 95.5 229C95.5 223.776 99.9539 219.5 105.5 219.5Z" stroke="#0060E1"/>
<path d="M396.5 282.5C390.954 282.5 386.5 278.224 386.5 273C386.5 267.776 390.954 263.5 396.5 263.5C402.046 263.5 406.5 267.776 406.5 273C406.5 278.224 402.046 282.5 396.5 282.5Z" stroke="#0060E1"/>
<path d="M219.5 397.5C219.5 391.954 223.776 387.5 229 387.5C234.224 387.5 238.5 391.954 238.5 397.5C238.5 403.046 234.224 407.5 229 407.5C223.776 407.5 219.5 403.046 219.5 397.5Z" fill="white" stroke="#0060E1"/>
<path d="M282.5 105.5C282.5 111.046 278.224 115.5 273 115.5C267.776 115.5 263.5 111.046 263.5 105.5C263.5 99.9539 267.776 95.5 273 95.5C278.224 95.5 282.5 99.9539 282.5 105.5Z" stroke="#0060E1"/>
<circle cx="24.5" cy="220.5" r="12" stroke="#0060E1"/>
<circle cx="477.5" cy="281.5" r="12" transform="rotate(-180 477.5 281.5)" stroke="#0060E1"/>
<circle cx="220.5" cy="478.5" r="12" transform="rotate(-90 220.5 478.5)" stroke="#0060E1"/>
<circle cx="281.5" cy="24.5" r="12" transform="rotate(90 281.5 24.5)" stroke="#0060E1"/>
<circle cx="54" cy="201" r="9" fill="#0060E1"/>
<circle cx="448" cy="301" r="9" transform="rotate(-180 448 301)" fill="#0060E1"/>
<circle cx="201" cy="449" r="9" transform="rotate(-90 201 449)" fill="#0060E1"/>
<circle cx="301" cy="54" r="8.5" transform="rotate(90 301 54)" fill="#D9D9D9" stroke="black"/>
<circle cx="301" cy="54" r="9" transform="rotate(90 301 54)" fill="#0060E1"/>
<circle cx="77.5" cy="344.5" r="14" stroke="#0060E1"/>
<circle cx="423.5" cy="157.5" r="14" transform="rotate(-180 423.5 157.5)" stroke="#0060E1"/>
<circle cx="344.5" cy="423.5" r="14" transform="rotate(-90 344.5 423.5)" stroke="#0060E1"/>
<circle cx="157.5" cy="77.5" r="14" transform="rotate(90 157.5 77.5)" stroke="#0060E1"/>
</svg>
